<svg width="28" height="16" viewBox="0 0 28 16" fill="none" xmlns="http://www.w3.org/2000/svg">
<path fill-rule="evenodd" clip-rule="evenodd" d="M11.5406 7.057C12.1208 6.79872 12.5597 6.51137 12.8589 6.19833C13.3933 5.63783 13.6582 4.89478 13.6582 3.97391C13.6582 3.07941 13.3933 2.31201 12.8658 1.6697C11.9864 0.623752 10.4948 0.0882676 8.38722 0.0605469H0.0361328V15.1603H7.8231C8.70096 15.1603 9.51316 15.094 10.2643 14.9574C11.0162 14.8195 11.6658 14.568 12.2162 14.1988C12.7063 13.877 13.1139 13.4808 13.4391 13.0109C13.9544 12.301 14.2108 11.4977 14.2108 10.6032C14.2108 9.7351 13.9857 8.99678 13.5383 8.3903C13.0864 7.78247 12.4215 7.33894 11.5406 7.057ZM3.48242 2.68263H7.24423C8.07094 2.68263 8.75185 2.76174 9.28772 2.9186C9.90604 3.14509 10.2152 3.60959 10.2152 4.31477C10.2152 4.94694 9.98009 5.38912 9.51291 5.63929C9.04269 5.88945 8.43277 6.01453 7.68468 6.01453H3.48242V2.68263ZM9.42894 12.2739C9.01292 12.4504 8.42742 12.5397 7.67781 12.5397H3.48242V8.51271H7.73735C8.47704 8.51812 9.05414 8.60466 9.46558 8.76828C10.1999 9.06307 10.5648 9.60193 10.5648 10.3889C10.5648 11.3172 10.187 11.9433 9.42894 12.2739ZM17.9043 0.764552H25.3096V2.64348H17.9043V0.764552ZM24.6568 4.22156C25.5499 4.56908 26.285 5.12079 26.8636 5.87331C27.3911 6.53726 27.73 7.30735 27.8842 8.18225C27.9751 8.69407 28.0109 9.43509 27.9964 10.3992H18.6858C18.7415 11.5182 19.182 12.3039 20.024 12.7541C20.5331 13.0341 21.1469 13.1747 21.8667 13.1747C22.6247 13.1747 23.2446 13.0036 23.7201 12.6635C23.9812 12.4776 24.2117 12.222 24.4087 11.8948H27.8201C27.73 12.5554 27.3155 13.2295 26.5827 13.913C25.4377 14.9982 23.8354 15.5411 21.7751 15.5411C20.0728 15.5411 18.5721 15.084 17.2751 14.1672C15.9713 13.2524 15.3232 11.7609 15.3232 9.6981C15.3232 7.76306 15.9103 6.27898 17.0828 5.24588C18.2583 4.21547 19.7789 3.69689 21.6514 3.69689C22.7644 3.69689 23.7659 3.87201 24.6568 4.22156ZM18.7686 8.47219C18.8907 7.74536 19.1884 7.16931 19.6602 6.74403C20.1319 6.31876 20.7991 6.10646 21.654 6.10646C22.4433 6.10646 23.1029 6.30591 23.6388 6.70685C24.1685 7.11049 24.4678 7.69668 24.5281 8.47219H18.7686Z" fill="black"/>
</svg>
