<svg width="17" height="12" viewBox="0 0 17 12" fill="none" xmlns="http://www.w3.org/2000/svg">
<path fill-rule="evenodd" clip-rule="evenodd" d="M6.71685 5.60828C7.05557 5.43312 7.31184 5.23825 7.48654 5.02596C7.79852 4.64584 7.95317 4.14193 7.95317 3.51743C7.95317 2.91081 7.79852 2.39039 7.49055 1.9548C6.97713 1.24547 6.10627 0.882325 4.87575 0.863525H0V11.1036H4.54639C5.05892 11.1036 5.53312 11.0587 5.97167 10.9661C6.41067 10.8725 6.78994 10.702 7.11128 10.4516C7.39741 10.2334 7.6354 9.96466 7.82526 9.64599C8.12609 9.16455 8.27584 8.61983 8.27584 8.01321C8.27584 7.42447 8.14437 6.92377 7.8832 6.51247C7.61935 6.10027 7.23117 5.79948 6.71685 5.60828ZM2.01151 2.64136H4.20782C4.6905 2.64136 5.08804 2.69501 5.40091 2.80139C5.76191 2.95499 5.94241 3.27001 5.94241 3.74826C5.94241 4.17698 5.80514 4.47686 5.53239 4.64652C5.25785 4.81618 4.90175 4.90101 4.46498 4.90101H2.01151V2.64136ZM5.48335 9.14598C5.24046 9.26565 4.89862 9.32617 4.46096 9.32617H2.01151V6.59521H4.49573C4.92759 6.59888 5.26452 6.65757 5.50475 6.76854C5.93349 6.96845 6.14653 7.33389 6.14653 7.86761C6.14653 8.49717 5.92591 8.92176 5.48335 9.14598ZM10.4329 1.34106H14.7565V2.61502H10.4329V1.34106ZM14.3759 3.68539C14.8973 3.92107 15.3265 4.29521 15.6644 4.80554C15.9723 5.25579 16.1702 5.77804 16.2602 6.37135C16.3133 6.71844 16.3342 7.22097 16.3257 7.87481H10.8898C10.9223 8.63364 11.1795 9.16643 11.671 9.4718C11.9683 9.66162 12.3266 9.75699 12.7469 9.75699C13.1895 9.75699 13.5514 9.64099 13.829 9.41036C13.9815 9.28427 14.1161 9.11095 14.231 8.88903H16.2228C16.1702 9.337 15.9282 9.79413 15.5003 10.2577C14.8318 10.9936 13.8963 11.3618 12.6934 11.3618C11.6996 11.3618 10.8234 11.0518 10.0661 10.4301C9.30492 9.80972 8.92654 8.79825 8.92654 7.39933C8.92654 6.08707 9.26927 5.08064 9.95383 4.38004C10.6402 3.68127 11.528 3.32959 12.6212 3.32959C13.271 3.32959 13.8558 3.44834 14.3759 3.68539ZM10.9373 6.56791C11.0086 6.07503 11.1824 5.68438 11.4579 5.39599C11.7333 5.10759 12.1228 4.96362 12.622 4.96362C13.0828 4.96362 13.4679 5.09888 13.7808 5.37077C14.0901 5.64449 14.2648 6.04201 14.3 6.56791H10.9373Z" fill="#ED2E4E"/>
</svg>
