<svg width="23" height="21" viewBox="0 0 23 21" fill="none" xmlns="http://www.w3.org/2000/svg">
<path fill-rule="evenodd" clip-rule="evenodd" d="M22.582 19.875C22.582 20.496 22.0241 20.9999 21.3358 20.9999H15.5812V13.1101H18.5166L18.9565 10.0356H15.5812V8.07213C15.5812 7.18197 15.8556 6.5754 17.2704 6.5754L19.0752 6.57485V3.82446C18.7627 3.78728 17.6917 3.70348 16.4455 3.70348C13.8435 3.70348 12.0621 5.13639 12.0621 7.76801V10.0356H9.1193V13.1101H12.0621V20.9999H1.24625C0.557923 20.9999 0 20.496 0 19.875V1.75113C0 1.12957 0.557923 0.626221 1.24625 0.626221H21.3358C22.0241 0.626221 22.582 1.12957 22.582 1.75113V19.875Z" fill="black"/>
</svg>
