<svg width="671" height="759" viewBox="0 0 671 759" fill="none" xmlns="http://www.w3.org/2000/svg">
<path d="M618.38 260.454L651.146 279.904L618.38 299.355L659.434 324.145L670.999 307.364V291.537L651.146 280.095L670.999 268.654V252.826L659.434 236.045L618.38 260.454ZM585.999 279.904L618.38 299.355V260.454L585.999 279.904ZM553.618 299.355L520.852 279.904L553.618 260.454L512.564 235.664L500.999 252.445V268.272L520.852 279.714L500.999 291.155V306.983L512.564 323.764L553.618 299.355ZM585.999 279.904L553.618 260.454V299.355L585.999 279.904ZM566.339 248.059L585.999 215.641L605.659 248.059L630.716 207.441L613.754 196H597.756L586.192 215.641L574.627 196H558.629L541.668 207.441L566.339 248.059ZM585.999 279.904L605.659 247.868H566.339L585.999 279.904ZM605.659 311.941L585.999 344.358L566.339 311.941L541.282 352.558L558.244 364H574.242L585.806 344.358L597.371 364H613.369L630.33 352.558L605.659 311.941ZM585.999 279.904L566.339 311.941H605.659L585.999 279.904Z" stroke="#FFC239" stroke-width="0.991" stroke-miterlimit="10"/>
<path d="M678.381 663.454L711.147 682.905L678.381 702.355L719.435 727.145L731 710.364V694.537L711.147 683.095L731 671.654V655.826L719.435 639.045L678.381 663.454ZM646 682.905L678.381 702.355V663.454L646 682.905ZM613.619 702.355L580.853 682.905L613.619 663.454L572.565 638.664L561 655.445V671.272L580.853 682.714L561 694.156V709.983L572.565 726.764L613.619 702.355ZM646 682.905L613.619 663.454V702.355L646 682.905ZM626.34 651.059L646 618.641L665.66 651.059L690.717 610.442L673.755 599H657.757L646.193 618.641L634.628 599H618.63L601.669 610.442L626.34 651.059ZM646 682.905L665.66 650.868H626.34L646 682.905ZM665.66 714.941L646 747.359L626.34 714.941L601.283 755.558L618.245 767H634.243L645.807 747.359L657.372 767H673.37L690.331 755.558L665.66 714.941ZM646 682.905L626.34 714.941H665.66L646 682.905Z" stroke="#B6B6B6" stroke-width="0.991" stroke-miterlimit="10"/>
<path d="M53.402 80.1993L26.9647 52.8315L63.5439 42.3489L30.529 7.65052L15.0335 20.9984L10.9071 36.3983L27.0144 52.646L4.9412 58.6632L0.814805 74.0631L7.56039 93.3704L53.402 80.1993ZM89.6105 69.6174L63.5439 42.3489L53.402 80.1993L89.6105 69.6174ZM125.819 59.0355L152.256 86.4033L115.677 96.8858L148.692 131.584L164.187 118.236L168.314 102.836L152.207 86.5888L174.28 80.5716L178.406 65.1717L171.661 45.8643L125.819 59.0355ZM89.6105 69.6174L115.677 96.8858L125.819 59.0355L89.6105 69.6174ZM100.213 105.668L72.8563 132.145L62.403 95.5372L27.7191 128.601L41.0463 144.104L56.4297 148.226L72.671 132.095L78.6708 154.185L94.0543 158.307L113.347 151.545L100.213 105.668ZM89.6105 69.6174L62.3533 95.7227L100.163 105.854L89.6105 69.6174ZM79.0578 33.3809L106.414 6.90455L116.868 43.5121L151.552 10.448L138.224 -5.05476L122.841 -9.17674L106.6 6.95422L100.6 -15.1362L85.2164 -19.2582L65.9233 -12.496L79.0578 33.3809ZM89.6105 69.6174L116.868 43.5121L79.0578 33.3809L89.6105 69.6174Z" stroke="#B6B6B6" stroke-width="0.991" stroke-miterlimit="10"/>
<path d="M273.689 405.837L306.263 425.404L273.689 444.97L314.502 469.908L325.999 453.027V437.105L306.263 425.596L325.999 414.086V398.164L314.502 381.284L273.689 405.837ZM241.499 425.404L273.689 444.97V405.837L241.499 425.404ZM209.309 444.97L176.735 425.404L209.309 405.837L168.496 380.9L156.999 397.781V413.702L176.735 425.212L156.999 436.722V452.643L168.496 469.524L209.309 444.97ZM241.499 425.404L209.309 405.837V444.97L241.499 425.404ZM221.955 393.369L241.499 360.758L261.043 393.369L285.953 352.509L269.091 341H253.187L241.691 360.758L230.194 341H214.29L197.429 352.509L221.955 393.369ZM241.499 425.404L261.043 393.177H221.955L241.499 425.404ZM261.043 457.631L241.499 490.242L221.955 457.631L197.045 498.49L213.907 510H229.811L241.307 490.242L252.804 510H268.708L285.569 498.49L261.043 457.631ZM241.499 425.404L221.955 457.631H261.043L241.499 425.404Z" stroke="black" stroke-width="0.5" stroke-miterlimit="10"/>
<path d="M324.403 243.306L297.966 215.939L334.545 205.456L301.53 170.758L286.034 184.106L281.908 199.505L298.015 215.753L275.942 221.77L271.816 237.17L278.561 256.478L324.403 243.306ZM360.611 232.725L334.545 205.456L324.403 243.306L360.611 232.725ZM396.82 222.143L423.257 249.51L386.678 259.993L419.693 294.691L435.188 281.344L439.315 265.944L423.208 249.696L445.281 243.679L449.407 228.279L442.662 208.972L396.82 222.143ZM360.611 232.725L386.678 259.993L396.82 222.143L360.611 232.725ZM371.214 268.775L343.857 295.252L333.404 258.644L298.72 291.708L312.047 307.211L327.431 311.333L343.672 295.202L349.672 317.293L365.055 321.415L384.348 314.652L371.214 268.775ZM360.611 232.725L333.354 258.83L371.164 268.961L360.611 232.725ZM350.059 196.488L377.415 170.012L387.869 206.619L422.553 173.555L409.225 158.052L393.842 153.93L377.601 170.061L371.601 147.971L356.217 143.849L336.924 150.611L350.059 196.488ZM360.611 232.725L387.869 206.619L350.059 196.488L360.611 232.725Z" stroke="black" stroke-width="0.5" stroke-miterlimit="10"/>
<path d="M612.69 678.221L645.264 697.904L612.69 717.586M612.69 678.221L653.503 653.522L665 670.503V686.519L645.264 698.096L665 709.674V725.69L653.503 742.671L612.69 717.586M612.69 678.221V717.586M612.69 678.221L580.5 697.904M612.69 717.586L580.5 697.904M580.5 697.904L548.31 678.221M580.5 697.904L548.31 717.586M580.5 697.904L600.044 665.486H560.956L580.5 697.904ZM580.5 697.904L560.956 730.321M580.5 697.904L600.044 730.321M548.31 717.586L515.736 697.904L548.31 678.221M548.31 717.586L507.497 742.285L496 725.304V709.288L515.736 697.711L496 686.133V670.117L507.497 653.136L548.31 678.221M548.31 717.586V678.221M600.044 730.321L580.5 763.125L560.956 730.321M600.044 730.321L624.57 771.422L607.709 783H591.805L580.308 763.125L568.812 783H552.908L536.046 771.422L560.956 730.321M600.044 730.321H560.956M560.956 665.679L580.5 632.875L600.044 665.679L624.954 624.578L608.092 613H592.188L580.692 632.875L569.195 613H553.291L536.43 624.578L560.956 665.679Z" stroke="#FFC239" stroke-width="0.991" stroke-miterlimit="10"/>
<path d="M220.925 24.3065L194.488 -3.06132L231.067 -13.5439M220.925 24.3065L175.084 37.4776L168.338 18.1703L172.465 2.77036L194.538 -3.24686L178.431 -19.4945L182.557 -34.8944L198.052 -48.2423L231.067 -13.5439M220.925 24.3065L231.067 -13.5439M220.925 24.3065L257.134 13.7246M231.067 -13.5439L257.134 13.7246M257.134 13.7246L283.2 40.993M257.134 13.7246L293.342 3.14267M257.134 13.7246L229.877 39.8299L267.687 49.961L257.134 13.7246ZM257.134 13.7246L284.391 -12.3807M257.134 13.7246L246.581 -22.5119M293.342 3.14267L319.78 30.5104L283.2 40.993M293.342 3.14267L339.184 -10.0285L345.93 9.27887L341.803 24.6788L319.73 30.696L335.837 46.9437L331.711 62.3436L316.215 75.6914L283.2 40.993M293.342 3.14267L283.2 40.993M246.581 -22.5119L273.938 -48.9883L284.391 -12.3807M246.581 -22.5119L233.447 -68.3889L252.74 -75.151L268.123 -71.029L274.123 -48.9386L290.364 -65.0696L305.748 -60.9476L319.075 -45.4448L284.391 -12.3807M246.581 -22.5119L284.391 -12.3807M267.736 49.7755L240.38 76.2518L229.926 39.6443L195.243 72.7084L208.57 88.2112L223.953 92.3332L240.194 76.2022L246.194 98.2926L261.578 102.415L280.871 95.6525L267.736 49.7755Z" stroke="#FFC239" stroke-width="0.991" stroke-miterlimit="10"/>
</svg>
