<svg width="34" height="36" viewBox="0 0 34 36" fill="none" xmlns="http://www.w3.org/2000/svg">
<path fill-rule="evenodd" clip-rule="evenodd" d="M17 34.4C8.45974 34.4 1.51115 27.0433 1.51115 18C1.51115 8.95733 8.45974 1.60067 17 1.60067C25.5403 1.60067 32.4889 8.95733 32.4889 18C32.4889 27.0433 25.5403 34.4 17 34.4ZM24.8678 14.4325L19.9712 13.5745L17.6636 9.08518C17.5314 8.82718 17.2764 8.66718 17 8.66718C16.7229 8.66718 16.4686 8.82718 16.3363 9.08518L14.0288 13.5745L9.13213 14.4325C8.85194 14.4812 8.6215 14.6925 8.53587 14.9785C8.44961 15.2652 8.52202 15.5785 8.7235 15.7898L12.4496 19.6992C12.7462 20.0092 13.2247 20.0079 13.5188 19.6945C13.8122 19.3805 13.8103 18.8738 13.5137 18.5625L10.8378 15.7552L14.6401 15.0885C14.8693 15.0485 15.0689 14.8985 15.1797 14.6818L17 11.1412L18.8202 14.6818C18.9311 14.8985 19.1306 15.0485 19.3598 15.0885L23.1622 15.7552L20.4862 18.5625C20.3156 18.7425 20.2356 18.9979 20.2709 19.2505L20.8275 23.1632L17.3255 21.3945C17.1196 21.2905 16.8797 21.2905 16.6745 21.3945L13.2077 23.1452L13.4539 21.6445C13.5251 21.2092 13.2499 20.7952 12.8388 20.7199C12.4245 20.6452 12.036 20.9365 11.9648 21.3712L11.4693 24.3965C11.4215 24.6919 11.5316 24.9898 11.7577 25.1705C11.8912 25.2785 12.0523 25.3339 12.2135 25.3339C12.3243 25.3339 12.4358 25.3072 12.5391 25.2552L17 23.0025L21.4609 25.2552C21.7134 25.3832 22.0118 25.3532 22.2353 25.1759C22.4608 25.0005 22.5747 24.7072 22.5332 24.4145L21.8223 19.4139L25.2758 15.7898C25.4779 15.5785 25.5503 15.2652 25.4641 14.9785C25.3785 14.6925 25.1474 14.4812 24.8678 14.4325ZM17 0C7.62607 0 0 8.07533 0 18C0 27.9253 7.62607 36 17 36C26.3739 36 34 27.9253 34 18C34 8.07533 26.3739 0 17 0Z" fill="black"/>
</svg>
