<svg width="23" height="21" viewBox="0 0 23 21" fill="none" xmlns="http://www.w3.org/2000/svg">
<path fill-rule="evenodd" clip-rule="evenodd" d="M20.0366 0H2.71733C1.22567 0 0.0166016 1.08311 0.0166016 2.42001V17.9859C0.0166016 19.3223 1.22567 20.4059 2.71733 20.4059H20.0366C21.5283 20.4059 22.7373 19.3223 22.7373 17.9859V2.42001C22.7373 1.08311 21.5283 0 20.0366 0ZM16.3486 3.18804C16.3486 2.83628 16.6665 2.55075 17.0582 2.55075H19.1882C19.5805 2.55075 19.8984 2.83628 19.8984 3.18804V5.10156C19.8984 5.45332 19.5805 5.73885 19.1882 5.73885H17.0582C16.6665 5.73885 16.3486 5.45332 16.3486 5.10156V3.18804ZM11.4042 6.31162C13.8174 6.31162 15.7738 8.06485 15.7738 10.2266C15.7738 12.3889 13.8174 14.1416 11.4042 14.1416C8.99161 14.1416 7.03516 12.3889 7.03516 10.2266C7.03516 8.06485 8.99161 6.31162 11.4042 6.31162ZM20.6073 17.8549C20.6073 18.2067 20.2894 18.4928 19.8971 18.4928H2.85668C2.4644 18.4928 2.14648 18.2067 2.14648 17.8549V8.28952H4.98665C4.61668 8.76763 4.4915 9.65983 4.4915 10.2264C4.4915 13.6411 7.59257 16.4195 11.4032 16.4195C15.2145 16.4195 18.3156 13.6411 18.3156 10.2264C18.3156 9.65983 18.2257 8.78154 17.7671 8.28952H20.6073V17.8549Z" fill="black"/>
</svg>
