<svg width="17" height="17" viewBox="0 0 17 17" fill="none" xmlns="http://www.w3.org/2000/svg">
<path fill-rule="evenodd" clip-rule="evenodd" d="M14.386 0H1.9407C0.868815 0 0 0.861161 0 1.92411V14.3003C0 15.3628 0.868815 16.2244 1.9407 16.2244H14.386C15.4579 16.2244 16.3267 15.3628 16.3267 14.3003V1.92411C16.3267 0.861161 15.4579 0 14.386 0ZM11.7348 2.53476C11.7348 2.25509 11.9633 2.02808 12.2447 2.02808H13.7753C14.0572 2.02808 14.2856 2.25509 14.2856 2.53476V4.05612C14.2856 4.33579 14.0572 4.5628 13.7753 4.5628H12.2447C11.9633 4.5628 11.7348 4.33579 11.7348 4.05612V2.53476ZM8.18256 5.01807C9.91663 5.01807 11.3225 6.41203 11.3225 8.13082C11.3225 9.85005 9.91663 11.2436 8.18256 11.2436C6.44894 11.2436 5.04307 9.85005 5.04307 8.13082C5.04307 6.41203 6.44894 5.01807 8.18256 5.01807ZM14.7964 14.1965C14.7964 14.4761 14.5679 14.7036 14.286 14.7036H2.04115C1.75926 14.7036 1.53081 14.4761 1.53081 14.1965V6.59106H3.5717C3.30585 6.9712 3.21589 7.68058 3.21589 8.13108C3.21589 10.846 5.44426 13.0552 8.18252 13.0552C10.9212 13.0552 13.1496 10.846 13.1496 8.13108C13.1496 7.68058 13.085 6.98226 12.7555 6.59106H14.7964V14.1965Z" fill="#ED2E4E"/>
</svg>
