<!-- Generator: Adobe Illustrator 25.2.0, SVG Export Plug-In  -->
<svg version="1.1" xmlns="http://www.w3.org/2000/svg" xmlns:xlink="http://www.w3.org/1999/xlink" x="0px" y="0px" width="215.9px"
	 height="47.8px" viewBox="0 0 215.9 47.8" style="overflow:visible;enable-background:new 0 0 215.9 47.8;" xml:space="preserve">
<style type="text/css">
	.st0{fill:#ED2E4E;}
</style>
<defs>
</defs>
<path class="st0" d="M45.9,47.1h-9.8l-7-10.6L41,19.1l15.2,21.8L45.9,47.1z M28.6,35.8l-11.7-17h23.4L28.6,35.8z M21.2,47.1h-9.8
	L1.1,40.9l15.2-21.8l11.9,17.3L21.2,47.1z M28.6,1.4l11.7,16.7H17L28.6,1.4z M41,17.8L28.6,0L15.5,18.8L0,41.1l11.2,6.6h10.5l7-10.6
	l7,10.6h10.5l11.2-6.6L41,17.8z"/>
<g>
	<path class="st0" d="M72.2,19.9l-2.5,5h4.9L72.2,19.9z M63.9,30.3l6.8-12.9h3.2l6.6,12.9h-3.1l-1.4-2.8h-7.5l-1.6,2.8H63.9z"/>
	<path class="st0" d="M85.2,19.6v3.9h2.5c1.5,0,2.8-0.3,2.8-1.9c0-1.7-1.3-1.9-2.8-1.9H85.2z M90.4,25.5l4.1,4.8h-3.9l-3.7-4.7h-1.6
		v4.7H82v-13h6.7c3.7,0,5.1,2,5.1,4.1c0,1.8-1,3.5-3.5,4L90.4,25.5L90.4,25.5z"/>
	<path class="st0" d="M100.2,17.4h-3.2v13h3.2V17.4z"/>
	<path class="st0" d="M109.7,30.4c-4.1,0-7.5-2.9-7.5-6.5c0-3.6,3.3-6.5,7.5-6.5c2.8,0,5.2,1.4,6.5,3.4c-1.3,0.6-1.4,0.6-2.8,1.2
		c-0.7-1.1-2.1-1.9-3.7-1.9c-2.4,0-4.4,1.8-4.4,3.9s2,3.9,4.4,3.9c1.6,0,3.1-0.8,3.8-2c1.4,0.6,1.4,0.7,2.8,1.2
		C115.1,29,112.7,30.4,109.7,30.4z"/>
	<path class="st0" d="M125.4,19.9l-2.5,5h4.9L125.4,19.9z M117,30.3l6.8-12.9h3.2l6.6,12.9h-3.1l-1.4-2.8h-7.5l-1.5,2.8H117z"/>
	<path class="st0" d="M144.1,27.9v2.4H141v-13h10.8v2.4h-7.7v2.9h6.8v2.6h-6.8V27.9z"/>
	<path class="st0" d="M156.8,17.4h-3.2v13h3.2V17.4z"/>
	<path class="st0" d="M159.4,30.2V17.3h3.1v10.5h7.6v2.4H159.4z"/>
	<path class="st0" d="M172.3,17.4h4.2l3.4,5.7l3.3-5.7h4.2v12.9h-3v-9.1l-3.3,5.8h-2.5l-3.2-5.7v9h-3.1V17.4z"/>
	<path class="st0" d="M193.5,25.2v2.7h8.4v2.4h-11.5v-13h10.8v2.4h-7.7v2.9h6.8v2.6H193.5z"/>
	<path class="st0" d="M206.4,26.5c0.3,1.7,2.1,1.9,3.2,1.9c1.1,0,2.9-0.3,2.9-1.6c0-2.7-8.8-1-8.8-5.8c0-2.6,2.8-3.9,5.5-3.9
		c3.1,0,5.9,1.1,5.9,4.1l-3.1-0.4c-0.4-1.5-1.9-1.6-2.9-1.6s-2.2,0.4-2.2,1.5c0,1,0.7,1.1,4.4,1.9c1.1,0.3,4.4,0.8,4.4,3.8
		c0,2.4-2.1,4.1-6.1,4.1c-3.3,0-6.2-1.4-6.2-4.6L206.4,26.5z"/>
</g>
</svg>
