<svg width="86" height="90" viewBox="0 0 86 90" fill="none" xmlns="http://www.w3.org/2000/svg">
<path d="M68.067 70.5993H53.5616L43.1765 54.9022L60.8425 29.1845L83.3624 61.5167L68.067 70.5993ZM42.4992 53.8656L25.1719 28.6909H59.8266L42.4992 53.8656ZM31.4368 70.5993H16.9315L1.63601 61.5167L24.1559 29.1845L41.8219 54.9022L31.4368 70.5993ZM42.4992 2.82512L59.8266 27.6543H25.2283L42.4992 2.82512ZM60.8425 27.1607L42.4992 0.80127L23.0836 28.6909L0.0556641 61.8129L16.5928 71.6359H32.1705L42.5557 55.9388L52.9408 71.6359H68.5185L85.0557 61.8129L60.8425 27.1607Z" fill="#ED2E4E"/>
<path d="M4.6846 83.8287L3.27357 86.6423H6.03918L4.6846 83.8287ZM0 89.6534L3.78154 82.4465H5.58765L9.25631 89.6534H7.50664L6.71647 88.0738H2.53984L1.63679 89.6534H0Z" fill="#ED2E4E"/>
<path d="M11.9653 83.6801V85.8521H13.3763C14.2229 85.8521 14.9567 85.704 14.9567 84.7661C14.9567 83.8282 14.2229 83.6801 13.3763 83.6801H11.9653ZM14.8438 86.9874L17.1579 89.653H14.9567L12.8683 87.0368H11.9653V89.653H10.1592V82.3967H13.8843C15.9726 82.3967 16.7628 83.5321 16.7628 84.7167C16.7628 85.704 16.1984 86.6912 14.7873 86.938H14.8438V86.9874Z" fill="#ED2E4E"/>
<path d="M20.3188 82.4465H18.5127V89.7028H20.3188V82.4465Z" fill="#ED2E4E"/>
<path d="M25.6805 89.7023C23.3665 89.7023 21.5039 88.0734 21.5039 86.0495C21.5039 84.0257 23.3665 82.3967 25.6805 82.3967C27.2609 82.3967 28.6155 83.1865 29.2928 84.2725C28.559 84.618 28.5026 84.618 27.7124 84.9636C27.3173 84.3219 26.5272 83.927 25.6241 83.927C24.2695 83.927 23.1407 84.9142 23.1407 86.0989C23.1407 87.2836 24.2695 88.2708 25.6241 88.2708C26.5272 88.2708 27.3738 87.8266 27.7689 87.1355C28.559 87.481 28.559 87.5304 29.3492 87.8266C28.6719 88.9125 27.3173 89.7023 25.6805 89.7023Z" fill="#ED2E4E"/>
<path d="M34.4287 83.8287L33.0177 86.6423H35.7833L34.4287 83.8287ZM29.7441 89.6534L33.5257 82.4465H35.3318L39.0005 89.6534H37.2508L36.4606 88.0738H32.284L31.4374 89.6534H29.7441Z" fill="#ED2E4E"/>
<path d="M44.9269 88.3202V89.653H43.1772V82.3967H49.2164V83.7295H44.9269V85.3585H48.7085V86.79H44.9269V88.3202Z" fill="#ED2E4E"/>
<path d="M52.0385 82.4465H50.2324V89.7028H52.0385V82.4465Z" fill="#ED2E4E"/>
<path d="M53.5059 89.6036V82.3967H55.2555V88.2708H59.4886V89.6036H53.5059Z" fill="#ED2E4E"/>
<path d="M60.7305 82.4465H63.101L65.02 85.6551L66.8825 82.4465H69.2531V89.6534H67.5598V84.5691L65.6973 87.827H64.2863L62.4801 84.6185V89.6534H60.7305V82.4465Z" fill="#ED2E4E"/>
<path d="M72.5832 86.79V88.3202H77.2678V89.653H70.8335V82.3967H76.8727V83.7295H72.5832V85.3585H76.3647V86.79H72.5832Z" fill="#ED2E4E"/>
<path d="M79.8072 87.5307C79.9765 88.4686 80.9925 88.6167 81.6133 88.6167C82.2342 88.6167 83.2501 88.4686 83.2501 87.7282C83.2501 86.1979 78.3397 87.1852 78.3397 84.4703C78.3397 82.9894 79.9201 82.2983 81.444 82.2983C83.1937 82.2983 84.774 82.94 84.774 84.6184L83.0243 84.3715C82.7986 83.5324 81.9519 83.483 81.3875 83.483C80.8231 83.483 80.1458 83.6805 80.1458 84.3222C80.1458 84.8652 80.5409 84.9639 82.6292 85.4081C83.2501 85.5562 85.1126 85.8524 85.1126 87.5307C85.1126 88.8635 83.9274 89.8507 81.6697 89.8507C79.8072 89.8507 78.1704 89.0609 78.1704 87.2839L79.8072 87.5307Z" fill="#ED2E4E"/>
</svg>
