<svg width="442" height="207" viewBox="0 0 442 207" fill="none" xmlns="http://www.w3.org/2000/svg">
<path d="M267.238 80.1333L315.038 103.871L267.238 127.608L327.129 157.862L344 137.382V118.067L315.038 104.103L344 90.1402V70.8245L327.129 50.3452L267.238 80.1333ZM220 103.871L267.238 127.608V80.1333L220 103.871ZM172.762 127.608L124.961 103.871L172.762 80.1333L112.871 49.8798L96 70.3591V89.6748L124.961 103.638L96 117.601V136.917L112.871 157.396L172.762 127.608ZM220 103.871L172.762 80.1333V127.608L220 103.871ZM191.32 65.0065L220 25.4442L248.68 65.0065L285.234 15.4373L260.49 1.47412H237.152L220.281 25.4442L203.41 1.47412H180.073L155.329 15.4373L191.32 65.0065ZM220 103.871L248.68 64.7738H191.32L220 103.871ZM248.68 142.968L220 182.53L191.32 142.968L154.766 192.537L179.51 206.5H202.848L219.719 182.53L236.59 206.5H259.927L284.671 192.537L248.68 142.968ZM220 103.871L191.32 142.968H248.68L220 103.871Z" stroke="#FFC239" stroke-width="0.991" stroke-miterlimit="10"/>
<path d="M395.809 89.8969L423.95 103.918L395.809 117.94L431.068 135.811L441 123.714V112.304L423.95 104.056L441 95.808V84.3982L431.068 72.3011L395.809 89.8969ZM368 103.918L395.809 117.94V89.8969L368 103.918ZM340.19 117.94L312.05 103.918L340.19 89.8969L304.932 72.0262L295 84.1233V95.533L312.05 103.781L295 112.029V123.439L304.932 135.536L340.19 117.94ZM368 103.918L340.19 89.8969V117.94L368 103.918ZM351.116 80.9615L368 57.5922L384.884 80.9615L406.404 51.6811L391.837 43.4331H378.097L368.166 57.5922L358.234 43.4331H344.494L329.927 51.6811L351.116 80.9615ZM368 103.918L384.884 80.8241H351.116L368 103.918ZM384.884 127.013L368 150.382L351.116 127.013L329.596 156.293L344.163 164.541H357.902L367.834 150.382L377.766 164.541H391.506L406.073 156.293L384.884 127.013ZM368 103.918L351.116 127.013H384.884L368 103.918Z" stroke="black" stroke-width="0.991" stroke-miterlimit="10"/>
<path d="M101.809 89.8969L129.95 103.918L101.809 117.94L137.068 135.811L147 123.714V112.304L129.95 104.056L147 95.808V84.3982L137.068 72.3011L101.809 89.8969ZM74 103.918L101.809 117.94V89.8969L74 103.918ZM46.1905 117.94L18.0499 103.918L46.1905 89.8969L10.932 72.0262L1 84.1233V95.533L18.0499 103.781L1 112.029V123.439L10.932 135.536L46.1905 117.94ZM74 103.918L46.1905 89.8969V117.94L74 103.918ZM57.1156 80.9615L74 57.5922L90.8843 80.9615L112.404 51.6811L97.8367 43.4331H84.0975L74.1655 57.5922L64.2335 43.4331H50.4943L35.9274 51.6811L57.1156 80.9615ZM74 103.918L90.8843 80.8241H57.1156L74 103.918ZM90.8843 127.013L74 150.382L57.1156 127.013L35.5964 156.293L50.1633 164.541H63.9025L73.8345 150.382L83.7664 164.541H97.5057L112.073 156.293L90.8843 127.013ZM74 103.918L57.1156 127.013H90.8843L74 103.918Z" stroke="black" stroke-width="0.991" stroke-miterlimit="10"/>
</svg>
