<svg width="86" height="8" viewBox="0 0 86 8" fill="none" xmlns="http://www.w3.org/2000/svg">
<path d="M4.6846 1.82867L3.27357 4.64231H6.03918L4.6846 1.82867ZM0 7.6534L3.78154 0.446533H5.58765L9.25631 7.6534H7.50664L6.71647 6.07381H2.53984L1.63679 7.6534H0Z" fill="#ED2E4E"/>
<path d="M11.9653 1.68014V3.85207H13.3763C14.2229 3.85207 14.9567 3.70399 14.9567 2.76611C14.9567 1.82823 14.2229 1.68014 13.3763 1.68014H11.9653ZM14.8438 4.9874L17.1579 7.65295H14.9567L12.8683 5.03676H11.9653V7.65295H10.1592V0.396729H13.8843C15.9726 0.396729 16.7628 1.53206 16.7628 2.71675C16.7628 3.70399 16.1984 4.69123 14.7873 4.93804H14.8438V4.9874Z" fill="#ED2E4E"/>
<path d="M20.3188 0.446533H18.5127V7.70276H20.3188V0.446533Z" fill="#ED2E4E"/>
<path d="M25.6805 7.70235C23.3665 7.70235 21.5039 6.07339 21.5039 4.04953C21.5039 2.02568 23.3665 0.396729 25.6805 0.396729C27.2609 0.396729 28.6155 1.18653 29.2928 2.2725C28.559 2.61803 28.5026 2.61803 27.7124 2.96357C27.3173 2.32186 26.5272 1.92695 25.6241 1.92695C24.2695 1.92695 23.1407 2.9142 23.1407 4.0989C23.1407 5.28359 24.2695 6.27084 25.6241 6.27084C26.5272 6.27084 27.3738 5.82657 27.7689 5.1355C28.559 5.48104 28.559 5.53041 29.3492 5.82658C28.6719 6.91255 27.3173 7.70235 25.6805 7.70235Z" fill="#ED2E4E"/>
<path d="M34.4287 1.82867L33.0177 4.64231H35.7833L34.4287 1.82867ZM29.7441 7.6534L33.5257 0.446533H35.3318L39.0005 7.6534H37.2508L36.4606 6.07381H32.284L31.4374 7.6534H29.7441Z" fill="#ED2E4E"/>
<path d="M44.9269 6.32018V7.65295H43.1772V0.396729H49.2164V1.7295H44.9269V3.35845H48.7085V4.78995H44.9269V6.32018Z" fill="#ED2E4E"/>
<path d="M52.0385 0.446533H50.2324V7.70276H52.0385V0.446533Z" fill="#ED2E4E"/>
<path d="M53.5059 7.60359V0.396729H55.2555V6.27082H59.4886V7.60359H53.5059Z" fill="#ED2E4E"/>
<path d="M60.7305 0.446533H63.101L65.02 3.65507L66.8825 0.446533H69.2531V7.6534H67.5598V2.5691L65.6973 5.827H64.2863L62.4801 2.61847V7.6534H60.7305V0.446533Z" fill="#ED2E4E"/>
<path d="M72.5832 4.78995V6.32018H77.2678V7.65295H70.8335V0.396729H76.8727V1.7295H72.5832V3.35845H76.3647V4.78995H72.5832Z" fill="#ED2E4E"/>
<path d="M79.8072 5.53072C79.9765 6.4686 80.9925 6.61669 81.6133 6.61669C82.2342 6.61669 83.2501 6.46861 83.2501 5.72817C83.2501 4.19795 78.3397 5.18519 78.3397 2.47027C78.3397 0.989407 79.9201 0.29834 81.444 0.29834C83.1937 0.29834 84.774 0.940046 84.774 2.61836L83.0243 2.37155C82.7986 1.53239 81.9519 1.48303 81.3875 1.48303C80.8231 1.48303 80.1458 1.68047 80.1458 2.32218C80.1458 2.86517 80.5409 2.96389 82.6292 3.40815C83.2501 3.55623 85.1126 3.85241 85.1126 5.53072C85.1126 6.8635 83.9274 7.85074 81.6697 7.85074C79.8072 7.85074 78.1704 7.06095 78.1704 5.28391L79.8072 5.53072Z" fill="#ED2E4E"/>
</svg>
