<svg width="17" height="15" viewBox="0 0 17 15" fill="none" xmlns="http://www.w3.org/2000/svg">
<path fill-rule="evenodd" clip-rule="evenodd" d="M15.8764 1.20136C15.2286 1.58751 14.5128 1.86835 13.7478 2.01861C13.1383 1.36361 12.2674 0.954346 11.3031 0.954346C9.45477 0.954346 7.95475 2.46469 7.95475 4.32737C7.95475 4.59194 7.98353 4.84837 8.04107 5.09539C5.25725 4.95454 2.78948 3.61329 1.13646 1.56996C0.847874 2.06998 0.683094 2.65006 0.683094 3.26781C0.683094 4.43739 1.27421 5.46998 2.17352 6.07488C1.62513 6.05862 1.10768 5.90536 0.655195 5.65449V5.69559C0.655195 7.33051 1.80996 8.69445 3.34354 9.00311C3.06281 9.08231 2.76638 9.12212 2.46079 9.12212C2.24501 9.12212 2.03446 9.10157 1.83045 9.06219C2.25678 10.4017 3.49306 11.3774 4.95908 11.4035C3.81303 12.3085 2.36794 12.8479 0.79905 12.8479C0.528777 12.8479 0.261555 12.8325 0 12.8017C1.48214 13.7572 3.24372 14.3159 5.13476 14.3159C11.2966 14.3159 14.6649 9.17692 14.6649 4.71908C14.6649 4.57224 14.6623 4.42583 14.6567 4.28199C15.311 3.80637 15.8794 3.21259 16.3267 2.53619C15.7269 2.80418 15.0808 2.98569 14.4034 3.06703C15.0952 2.65006 15.6262 1.98907 15.8764 1.20136Z" fill="#ED2E4E"/>
</svg>
