<svg width="307" height="176" viewBox="0 0 307 176" fill="none" xmlns="http://www.w3.org/2000/svg">
<path d="M211.595 102.669L270.382 133.35L211.595 164.031L285.252 203.134L306 176.664V151.698L270.382 133.65L306 115.603V90.6368L285.252 64.1669L211.595 102.669ZM153.5 133.35L211.595 164.031V102.669L153.5 133.35ZM95.4048 164.031L36.6179 133.35L95.4048 102.669L21.7483 63.5653L1 90.0352V115.001L36.6179 133.049L1 151.096V176.062L21.7483 202.532L95.4048 164.031ZM153.5 133.35L95.4048 102.669V164.031L153.5 133.35ZM118.228 83.1169L153.5 31.9818L188.772 83.1169L233.727 19.0477L203.296 1H174.594L153.846 31.9818L133.097 1H104.396L73.9649 19.0477L118.228 83.1169ZM153.5 133.35L188.772 82.8161H118.228L153.5 133.35ZM188.772 183.883L153.5 235.018L118.228 183.883L73.2732 247.952L103.704 266H132.406L153.154 235.018L173.902 266H202.604L233.035 247.952L188.772 183.883ZM153.5 133.35L118.228 183.883H188.772L153.5 133.35Z" stroke="white" stroke-width="0.991" stroke-miterlimit="10"/>
</svg>
