<svg width="303" height="173" viewBox="0 0 303 173" fill="none" xmlns="http://www.w3.org/2000/svg">
<path d="M211.595 8.66856L270.382 39.3496L211.595 70.0307L285.252 109.134L306 82.664V57.6981L270.382 39.6504L306 21.6027V-3.36323L285.252 -29.8331L211.595 8.66856ZM153.5 39.3496L211.595 70.0307V8.66856L153.5 39.3496ZM95.4048 70.0307L36.6179 39.3496L95.4048 8.66856L21.7483 -30.4347L1 -3.96481V21.0011L36.6179 39.0488L1 57.0965V82.0624L21.7483 108.532L95.4048 70.0307ZM153.5 39.3496L95.4048 8.66856V70.0307L153.5 39.3496ZM118.228 -10.8831L153.5 -62.0182L188.772 -10.8831L233.727 -74.9523L203.296 -93H174.594L153.846 -62.0182L133.097 -93H104.396L73.9649 -74.9523L118.228 -10.8831ZM153.5 39.3496L188.772 -11.1839H118.228L153.5 39.3496ZM188.772 89.8831L153.5 141.018L118.228 89.8831L73.2732 153.952L103.704 172H132.406L153.154 141.018L173.902 172H202.604L233.035 153.952L188.772 89.8831ZM153.5 39.3496L118.228 89.8831H188.772L153.5 39.3496Z" stroke="white" stroke-width="0.991" stroke-miterlimit="10"/>
</svg>
